<svg xmlns="http://www.w3.org/2000/svg" xmlns:xlink="http://www.w3.org/1999/xlink" width="1400" height="360" viewBox="0 0 1400 360">
  <defs>
    <clipPath id="clip-logo-on-dark-lg">
      <rect width="1400" height="360"/>
    </clipPath>
  </defs>
  <g id="logo-on-dark-lg" clip-path="url(#clip-logo-on-dark-lg)">
    <rect width="1400" height="360" fill="#1a3182"/>
    <g id="logo-on-dark" transform="translate(700 180.46)">
      <g id="Group_2" data-name="Group 2" transform="translate(-500 -70.46)">
        <g id="Group_1" data-name="Group 1">
          <path id="Path_3" data-name="Path 3" d="M44.242,62.616q0-3.039-3.184-4.874t-12.085-3.82a54.989,54.989,0,0,1-14.7-5.195,24.536,24.536,0,0,1-8.834-7.805A18.662,18.662,0,0,1,2.4,30.387q0-10.522,8.689-17.348t22.76-6.818q15.12,0,24.31,6.854a21.431,21.431,0,0,1,9.186,18.02H43.462q0-9.18-9.682-9.186a9.624,9.624,0,0,0-6.291,2.083,6.458,6.458,0,0,0-2.543,5.195,5.917,5.917,0,0,0,3.112,5.159q3.109,1.977,9.93,3.251a85.849,85.849,0,0,1,11.977,3.039q17.244,5.939,17.244,21.271,0,10.46-9.294,17.032T33.852,85.515a41.567,41.567,0,0,1-17.528-3.536A29.322,29.322,0,0,1,4.311,72.37,21.77,21.77,0,0,1,0,59.577H22.263q.14,5.3,3.53,7.738a14.559,14.559,0,0,0,8.694,2.44q4.877,0,7.314-1.98A6.337,6.337,0,0,0,44.242,62.616Z" transform="translate(0 25.936)" fill="#3d9afe" style="isolation: isolate"/>
          <path id="Path_4" data-name="Path 4" d="M47.6,2.816V21.828H60.177V38.364H47.6V73.348q0,4.311,1.556,6.006t6.151,1.7a34.78,34.78,0,0,0,5.934-.424V97.659a43.982,43.982,0,0,1-13.424,2.052q-12.3,0-18.164-5.8t-5.867-17.6V38.364H14.027V21.828h9.754V2.816Z" transform="translate(58.48 11.74)" fill="#3d9afe" style="isolation: isolate"/>
          <path id="Path_5" data-name="Path 5" d="M70.878,29.187l-7.847-.563q-11.235,0-14.417,7.066V84.1H24.8V7.632H47.132l.775,9.826Q53.916,6.216,64.66,6.221a23.121,23.121,0,0,1,6.642.848Z" transform="translate(103.398 25.936)" fill="#3d9afe" style="isolation: isolate"/>
          <path id="Path_6" data-name="Path 6" d="M35.342,12.027a10.637,10.637,0,0,1,3.675-8.343A13.856,13.856,0,0,1,48.554.438,13.87,13.87,0,0,1,58.1,3.684a10.637,10.637,0,0,1,3.675,8.343A10.627,10.627,0,0,1,58.1,20.365a13.872,13.872,0,0,1-9.542,3.251,13.859,13.859,0,0,1-9.537-3.251A10.627,10.627,0,0,1,35.342,12.027Zm25.3,96.182H36.753V31.742H60.64Z" transform="translate(147.345 1.826)" fill="#3d9afe" style="isolation: isolate"/>
          <path id="Path_7" data-name="Path 7" d="M113.924,46.431q0,17.81-8.022,28.446T84.238,85.515a22.034,22.034,0,0,1-17.311-7.707V113.5H43.107V7.632H65.37l.708,7.066A22.051,22.051,0,0,1,84.1,6.221q14.135,0,21.979,10.421T113.924,45.3ZM90.1,44.948q0-20.353-11.873-20.356-8.475,0-11.3,6.079v30.1q3.109,6.366,11.45,6.363,11.375,0,11.729-19.648Z" transform="translate(179.718 25.936)" fill="#3d9afe" style="isolation: isolate"/>
          <path id="Path_8" data-name="Path 8" d="M97.742,85.515q-17.593,0-28.482-10.5T58.379,47.7v-1.98a46.954,46.954,0,0,1,4.347-20.707A31.794,31.794,0,0,1,75.411,11.132Q83.746,6.224,95.2,6.221q16.112,0,25.442,10t9.33,27.882v9.258H82.617A17.17,17.17,0,0,0,88.2,63.464q4.311,3.675,11.17,3.675,11.3,0,17.668-7.914l10.881,12.861a30.41,30.41,0,0,1-12.613,9.785A42.6,42.6,0,0,1,97.742,85.515ZM95.059,24.592q-10.467,0-12.442,13.853h24.031V36.61q.14-5.73-2.9-8.87T95.059,24.592Z" transform="translate(243.388 25.936)" fill="#3d9afe" style="isolation: isolate"/>
          <path id="Path_9" data-name="Path 9" d="M117.505,62.616q0-3.039-3.179-4.874t-12.085-3.82a55.03,55.03,0,0,1-14.7-5.195,24.622,24.622,0,0,1-8.834-7.805,18.663,18.663,0,0,1-3.039-10.535q0-10.522,8.694-17.348t22.754-6.818q15.127,0,24.315,6.854a21.444,21.444,0,0,1,9.185,18.02H116.73q0-9.18-9.682-9.186a9.614,9.614,0,0,0-6.291,2.083,6.458,6.458,0,0,0-2.543,5.195,5.922,5.922,0,0,0,3.107,5.159q3.109,1.977,9.93,3.251a85.746,85.746,0,0,1,11.982,3.039q17.236,5.939,17.244,21.271,0,10.46-9.294,17.032t-24.067,6.575a41.543,41.543,0,0,1-17.523-3.536A29.255,29.255,0,0,1,77.579,72.37a21.734,21.734,0,0,1-4.311-12.794H95.526q.14,5.3,3.536,7.738a14.542,14.542,0,0,0,8.689,2.44q4.877,0,7.314-1.98A6.323,6.323,0,0,0,117.505,62.616Z" transform="translate(305.462 25.936)" fill="#31f29d" style="isolation: isolate"/>
          <path id="Path_10" data-name="Path 10" d="M134.32,84.1a27.006,27.006,0,0,1-2.264-6.854q-6.567,8.265-18.371,8.271a27.132,27.132,0,0,1-18.376-6.539,20.792,20.792,0,0,1-7.562-16.433q0-12.437,9.186-18.8t26.714-6.358H131V33.338q0-10.584-9.113-10.581-8.483,0-8.483,8.379H89.586q0-11.08,9.434-18t24.062-6.916q14.631,0,23.111,7.139t8.689,19.575V66.787q.14,10.529,3.251,16.112v1.2ZM119.407,68.55a13.306,13.306,0,0,0,7.387-1.907,11.951,11.951,0,0,0,4.2-4.311V50.107h-6.927q-12.437,0-12.437,11.165a6.812,6.812,0,0,0,2.192,5.267A7.942,7.942,0,0,0,119.407,68.55Z" transform="translate(365.823 25.936)" fill="#31f29d" style="isolation: isolate"/>
          <path id="Path_11" data-name="Path 11" d="M113.254,110.035V50.1h-11.1V33.568h11.1V27.489q0-13.073,7.7-20.278T142.584,0a47.471,47.471,0,0,1,11.165,1.484l.067,17.528a21.745,21.745,0,0,0-5.862-.636q-10.816,0-10.814,9.325v5.867h14.913V50.1H137.141v59.931Z" transform="translate(425.899 0)" fill="#31f29d" style="isolation: isolate"/>
          <path id="Path_12" data-name="Path 12" d="M152.006,85.515q-17.6,0-28.482-10.5T112.643,47.7v-1.98a47.025,47.025,0,0,1,4.342-20.707,31.836,31.836,0,0,1,12.69-13.884q8.335-4.908,19.787-4.911,16.112,0,25.442,10T184.23,44.1v9.258H136.881a17.17,17.17,0,0,0,5.583,10.106q4.311,3.675,11.165,3.675,11.3,0,17.668-7.914l10.886,12.861a30.427,30.427,0,0,1-12.618,9.785A42.564,42.564,0,0,1,152.006,85.515Zm-2.688-60.923q-10.46,0-12.437,13.853h24.026V36.61q.147-5.73-2.895-8.87T149.318,24.592Z" transform="translate(469.621 25.936)" fill="#31f29d" style="isolation: isolate"/>
          <path id="Path_13" data-name="Path 13" d="M199.191,46.431q0,17.81-8.022,28.446T169.51,85.515a22.045,22.045,0,0,1-17.317-7.707V113.5H128.379V7.632h22.263l.7,7.066A22.053,22.053,0,0,1,169.37,6.221q14.127,0,21.979,10.421T199.191,45.3Zm-23.814-1.484q0-20.353-11.873-20.356-8.482,0-11.31,6.079v30.1q3.109,6.366,11.45,6.363,11.375,0,11.734-19.648Z" transform="translate(535.226 25.936)" fill="#31f29d" style="isolation: isolate"/>
          <path id="Path_14" data-name="Path 14" d="M190,84.1a26.824,26.824,0,0,1-2.259-6.854q-6.575,8.265-18.376,8.271a27.128,27.128,0,0,1-18.371-6.539,20.791,20.791,0,0,1-7.562-16.433q0-12.437,9.185-18.8t26.714-6.358h7.35V33.338q0-10.584-9.118-10.581-8.483,0-8.477,8.379H145.267q0-11.08,9.434-18t24.067-6.916q14.623,0,23.106,7.139t8.694,19.575V66.787q.14,10.529,3.251,16.112v1.2ZM175.093,68.55a13.275,13.275,0,0,0,7.381-1.907,11.968,11.968,0,0,0,4.208-4.311V50.107h-6.927q-12.445,0-12.437,11.165a6.812,6.812,0,0,0,2.192,5.267A7.933,7.933,0,0,0,175.093,68.55Z" transform="translate(597.983 25.936)" fill="#31f29d" style="isolation: isolate"/>
          <path id="Path_15" data-name="Path 15" d="M194.946,49.6l12.721-43.11h25.51l-31.165,89.26-1.344,3.251q-6.645,14.841-23.463,14.841a37.238,37.238,0,0,1-9.821-1.411V95.47h3.107q5.017,0,7.671-1.447a8.835,8.835,0,0,0,3.918-5.2l1.913-5.092L157.418,6.494H182.86Z" transform="translate(656.293 27.074)" fill="#31f29d" style="isolation: isolate"/>
        </g>
        <path id="Path_16" data-name="Path 16" d="M206.472,51.42,216.81,61.759l20.676-20.676m29.04-20.759A61.779,61.779,0,0,1,221.979,4.609a61.787,61.787,0,0,1-44.547,15.714,62.117,62.117,0,0,0,44.547,75.665,62.117,62.117,0,0,0,44.547-75.665Z" transform="translate(731.499 19.215)" fill="none" stroke="#31f29d" stroke-miterlimit="10" stroke-width="10.338" style="isolation: isolate"/>
      </g>
    </g>
  </g>
</svg>
