<svg xmlns="http://www.w3.org/2000/svg" width="427.974" height="60" viewBox="0 0 427.974 60">
  <g id="logo-on-dark" transform="translate(212.886 30)">
    <g id="Group_2" data-name="Group 2" transform="translate(-212.886 -30)">
      <g id="Group_1" data-name="Group 1">
        <path id="Path_3" data-name="Path 3" d="M18.837,30.232a2.34,2.34,0,0,0-1.356-2.075,20.632,20.632,0,0,0-5.146-1.626,23.413,23.413,0,0,1-6.257-2.212A10.447,10.447,0,0,1,2.318,21,7.946,7.946,0,0,1,1.023,16.51a9,9,0,0,1,3.7-7.386,15.26,15.26,0,0,1,9.69-2.9q6.438,0,10.351,2.918a9.125,9.125,0,0,1,3.911,7.672H18.5q0-3.909-4.122-3.911a4.1,4.1,0,0,0-2.678.887A2.75,2.75,0,0,0,10.621,16a2.519,2.519,0,0,0,1.325,2.2,12.509,12.509,0,0,0,4.228,1.384,36.552,36.552,0,0,1,5.1,1.294q7.342,2.529,7.342,9.057a8.531,8.531,0,0,1-3.957,7.252,17.346,17.346,0,0,1-10.245,2.8A17.7,17.7,0,0,1,6.95,38.477a12.485,12.485,0,0,1-5.115-4.091A9.269,9.269,0,0,1,0,28.938H9.479a3.917,3.917,0,0,0,1.5,3.295,6.2,6.2,0,0,0,3.7,1.039,4.873,4.873,0,0,0,3.114-.843A2.7,2.7,0,0,0,18.837,30.232Z" transform="translate(0 7.471)" fill="#3d9afe" style="isolation: isolate"/>
        <path id="Path_4" data-name="Path 4" d="M28.319,2.816v8.095h5.357v7.041H28.319v14.9a3.809,3.809,0,0,0,.662,2.557,3.548,3.548,0,0,0,2.619.722,14.808,14.808,0,0,0,2.527-.18V43.2a18.726,18.726,0,0,1-5.716.874q-5.236,0-7.734-2.469t-2.5-7.492V17.951H14.027V10.911H18.18V2.816Z" transform="translate(16.845 3.382)" fill="#3d9afe" style="isolation: isolate"/>
        <path id="Path_5" data-name="Path 5" d="M44.42,16l-3.341-.24q-4.784,0-6.138,3.009V39.379H24.8V6.822h9.508l.33,4.184Q37.2,6.219,41.772,6.221a9.844,9.844,0,0,1,2.828.361Z" transform="translate(29.783 7.471)" fill="#3d9afe" style="isolation: isolate"/>
        <path id="Path_6" data-name="Path 6" d="M35.342,5.372A4.529,4.529,0,0,1,36.907,1.82,5.9,5.9,0,0,1,40.967.438,5.905,5.905,0,0,1,45.03,1.82,4.529,4.529,0,0,1,46.6,5.372a4.525,4.525,0,0,1-1.565,3.55,5.906,5.906,0,0,1-4.063,1.384,5.9,5.9,0,0,1-4.061-1.384A4.525,4.525,0,0,1,35.342,5.372ZM46.113,46.324H35.943V13.766h10.17Z" transform="translate(42.441 0.526)" fill="#3d9afe" style="isolation: isolate"/>
        <path id="Path_7" data-name="Path 7" d="M73.259,23.342q0,7.583-3.416,12.111a10.953,10.953,0,0,1-9.224,4.529A9.381,9.381,0,0,1,53.249,36.7V51.9H43.107V6.822h9.479l.3,3.009A9.389,9.389,0,0,1,60.56,6.221a11.04,11.04,0,0,1,9.358,4.437q3.341,4.44,3.341,12.2ZM63.117,22.71q0-8.666-5.055-8.667-3.608,0-4.813,2.588V29.449q1.324,2.71,4.875,2.709,4.843,0,4.994-8.365Z" transform="translate(51.766 7.471)" fill="#3d9afe" style="isolation: isolate"/>
        <path id="Path_8" data-name="Path 8" d="M75.139,39.982q-7.491,0-12.127-4.47a15.43,15.43,0,0,1-4.633-11.629V23.04a19.992,19.992,0,0,1,1.851-8.817,13.537,13.537,0,0,1,5.4-5.912,16.309,16.309,0,0,1,8.425-2.091q6.86,0,10.833,4.256t3.973,11.871v3.942H68.7a7.31,7.31,0,0,0,2.377,4.3,7.074,7.074,0,0,0,4.756,1.565,9.115,9.115,0,0,0,7.523-3.37l4.633,5.476a12.948,12.948,0,0,1-5.37,4.166A18.14,18.14,0,0,1,75.139,39.982ZM74,14.043q-4.457,0-5.3,5.9H78.931V19.16A5.025,5.025,0,0,0,77.7,15.383,4.912,4.912,0,0,0,74,14.043Z" transform="translate(70.105 7.471)" fill="#3d9afe" style="isolation: isolate"/>
        <path id="Path_9" data-name="Path 9" d="M92.1,30.232a2.341,2.341,0,0,0-1.354-2.075A20.665,20.665,0,0,0,85.6,26.531a23.43,23.43,0,0,1-6.259-2.212A10.483,10.483,0,0,1,75.583,21a7.946,7.946,0,0,1-1.294-4.485,9,9,0,0,1,3.7-7.386,15.249,15.249,0,0,1,9.688-2.9q6.441,0,10.353,2.918a9.13,9.13,0,0,1,3.911,7.672H91.773q0-3.909-4.122-3.911a4.093,4.093,0,0,0-2.678.887A2.75,2.75,0,0,0,83.889,16a2.521,2.521,0,0,0,1.323,2.2A12.509,12.509,0,0,0,89.44,19.58a36.508,36.508,0,0,1,5.1,1.294q7.339,2.529,7.342,9.057a8.531,8.531,0,0,1-3.957,7.252,17.354,17.354,0,0,1-10.247,2.8,17.688,17.688,0,0,1-7.461-1.505A12.456,12.456,0,0,1,75.1,34.385a9.254,9.254,0,0,1-1.836-5.447h9.477a3.912,3.912,0,0,0,1.505,3.295,6.192,6.192,0,0,0,3.7,1.039,4.868,4.868,0,0,0,3.114-.843A2.692,2.692,0,0,0,92.1,30.232Z" transform="translate(87.985 7.471)" fill="#31f29d" style="isolation: isolate"/>
        <path id="Path_10" data-name="Path 10" d="M107.576,39.379a11.5,11.5,0,0,1-.964-2.918,9.428,9.428,0,0,1-7.822,3.521A11.552,11.552,0,0,1,90.966,37.2a8.852,8.852,0,0,1-3.22-7,9.107,9.107,0,0,1,3.911-8q3.912-2.707,11.374-2.707h3.13V17.767q0-4.506-3.88-4.505-3.612,0-3.612,3.568H88.529a9.088,9.088,0,0,1,4.017-7.663,16.881,16.881,0,0,1,10.245-2.945q6.23,0,9.84,3.039a10.566,10.566,0,0,1,3.7,8.335V32.009a14.753,14.753,0,0,0,1.384,6.86v.511Zm-6.349-6.62a5.665,5.665,0,0,0,3.145-.812,5.089,5.089,0,0,0,1.789-1.836V24.906h-2.949q-5.3,0-5.3,4.754a2.9,2.9,0,0,0,.933,2.243A3.382,3.382,0,0,0,101.226,32.759Z" transform="translate(105.371 7.471)" fill="#31f29d" style="isolation: isolate"/>
        <path id="Path_11" data-name="Path 11" d="M106.881,46.85V21.333h-4.725V14.292h4.725V11.7q0-5.566,3.279-8.634T119.369,0a20.212,20.212,0,0,1,4.754.632l.029,7.463a9.258,9.258,0,0,0-2.5-.271q-4.605,0-4.6,3.97v2.5h6.35v7.041h-6.35V46.85Z" transform="translate(122.676)" fill="#31f29d" style="isolation: isolate"/>
        <path id="Path_12" data-name="Path 12" d="M129.4,39.982q-7.494,0-12.127-4.47a15.422,15.422,0,0,1-4.633-11.629V23.04a20.022,20.022,0,0,1,1.849-8.817,13.555,13.555,0,0,1,5.4-5.912,16.309,16.309,0,0,1,8.425-2.091q6.86,0,10.833,4.256t3.97,11.871v3.942h-20.16a7.311,7.311,0,0,0,2.377,4.3,7.072,7.072,0,0,0,4.754,1.565,9.112,9.112,0,0,0,7.523-3.37l4.635,5.476a12.955,12.955,0,0,1-5.372,4.166A18.122,18.122,0,0,1,129.4,39.982Zm-1.144-25.939q-4.453,0-5.3,5.9h10.23V19.16a5.015,5.015,0,0,0-1.232-3.777A4.917,4.917,0,0,0,128.258,14.043Z" transform="translate(135.269 7.471)" fill="#31f29d" style="isolation: isolate"/>
        <path id="Path_13" data-name="Path 13" d="M158.529,23.342q0,7.583-3.416,12.111a10.946,10.946,0,0,1-9.222,4.529,9.386,9.386,0,0,1-7.373-3.281V51.9H128.379V6.822h9.479l.3,3.009a9.39,9.39,0,0,1,7.674-3.609,11.043,11.043,0,0,1,9.358,4.437q3.338,4.44,3.339,12.2Zm-10.139-.632q0-8.666-5.055-8.667-3.612,0-4.816,2.588V29.449q1.324,2.71,4.875,2.709,4.843,0,5-8.365Z" transform="translate(154.166 7.471)" fill="#31f29d" style="isolation: isolate"/>
        <path id="Path_14" data-name="Path 14" d="M163.26,39.379a11.422,11.422,0,0,1-.962-2.918,9.435,9.435,0,0,1-7.824,3.521,11.55,11.55,0,0,1-7.822-2.784,8.852,8.852,0,0,1-3.22-7,9.107,9.107,0,0,1,3.911-8q3.912-2.707,11.374-2.707h3.13V17.767q0-4.506-3.882-4.505-3.612,0-3.609,3.568H144.213a9.094,9.094,0,0,1,4.017-7.663,16.888,16.888,0,0,1,10.247-2.945q6.226,0,9.838,3.039a10.561,10.561,0,0,1,3.7,8.335V32.009a14.725,14.725,0,0,0,1.384,6.86v.511Zm-6.347-6.62a5.652,5.652,0,0,0,3.143-.812,5.1,5.1,0,0,0,1.792-1.836V24.906H158.9q-5.3,0-5.3,4.754a2.9,2.9,0,0,0,.933,2.243A3.378,3.378,0,0,0,156.912,32.759Z" transform="translate(172.243 7.471)" fill="#31f29d" style="isolation: isolate"/>
        <path id="Path_15" data-name="Path 15" d="M173.4,24.849l5.416-18.355h10.861L176.4,44.5l-.572,1.384Q173,52.2,165.843,52.2a15.855,15.855,0,0,1-4.182-.6V44.377h1.323a6.972,6.972,0,0,0,3.266-.616,3.762,3.762,0,0,0,1.668-2.214l.814-2.168L157.418,6.494h10.833Z" transform="translate(189.038 7.798)" fill="#31f29d" style="isolation: isolate"/>
      </g>
      <path id="Path_16" data-name="Path 16" d="M188.662,24.54l4.4,4.4,8.8-8.8M214.232,11.3a26.3,26.3,0,0,1-18.967-6.691A26.307,26.307,0,0,1,176.3,11.3a26.448,26.448,0,0,0,18.967,32.216A26.448,26.448,0,0,0,214.232,11.3Z" transform="translate(210.7 5.535)" fill="none" stroke="#31f29d" stroke-miterlimit="10" stroke-width="4.402" style="isolation: isolate"/>
    </g>
  </g>
</svg>
