<svg xmlns="http://www.w3.org/2000/svg" width="800" height="802.187"><path fill="#31f29d" d="m400 802.186-9.96-2.577C160.39 740.508 0 533.418 0 296a522.18 522.18 0 0 1 16.524-130.628l8.165-31.7 32.695 1.738c117.148 6.152 228.945-33.36 315.9-111.425L400 0l26.718 23.985c86.993 78.047 198.907 117.832 315.9 111.425l32.657-1.738 8.165 31.68A522.676 522.676 0 0 1 800 296c0 237.422-160.39 444.512-390.038 503.613ZM87.265 216.015A439.833 439.833 0 0 0 80 295.957c0 197.48 131.055 370.157 320 423.5C588.945 666.113 720 493.437 720 296a441.477 441.477 0 0 0-7.265-79.982A513.591 513.591 0 0 1 400 105.957 513.841 513.841 0 0 1 87.265 216.015ZM360 552.558 251.718 444.277l56.563-56.562L360 439.433l131.718-131.718 56.563 56.562Z" data-name="Path 1" style="isolation:isolate"/></svg>